<mxfile host="app.diagrams.net" agent="Mozilla/5.0 (Windows NT 10.0; Win64; x64; rv:129.0) Gecko/20100101 Firefox/129.0" version="24.7.7">
  <diagram name="Página-1" id="DQ7KSsER-GnalfvxLtHc">
    <mxGraphModel dx="1597" dy="1223" grid="0" gridSize="10" guides="1" tooltips="1" connect="1" arrows="1" fold="1" page="0" pageScale="1" pageWidth="827" pageHeight="1169" math="0" shadow="0">
      <root>
        <mxCell id="0" />
        <mxCell id="1" parent="0" />
        <mxCell id="xjHvmWYcJlxAKBO4dc0I-1" value="AWS Account AnaDuartes" style="points=[[0,0],[0.25,0],[0.5,0],[0.75,0],[1,0],[1,0.25],[1,0.5],[1,0.75],[1,1],[0.75,1],[0.5,1],[0.25,1],[0,1],[0,0.75],[0,0.5],[0,0.25]];outlineConnect=0;gradientColor=none;html=1;whiteSpace=wrap;fontSize=12;fontStyle=0;container=1;pointerEvents=0;collapsible=0;recursiveResize=0;shape=mxgraph.aws4.group;grIcon=mxgraph.aws4.group_account;strokeColor=#CD2264;fillColor=none;verticalAlign=top;align=left;spacingLeft=30;fontColor=#CD2264;dashed=0;" vertex="1" parent="1">
          <mxGeometry y="-152" width="779" height="568" as="geometry" />
        </mxCell>
        <mxCell id="xjHvmWYcJlxAKBO4dc0I-2" value="Region São Paulo" style="points=[[0,0],[0.25,0],[0.5,0],[0.75,0],[1,0],[1,0.25],[1,0.5],[1,0.75],[1,1],[0.75,1],[0.5,1],[0.25,1],[0,1],[0,0.75],[0,0.5],[0,0.25]];outlineConnect=0;gradientColor=none;html=1;whiteSpace=wrap;fontSize=12;fontStyle=0;container=1;pointerEvents=0;collapsible=0;recursiveResize=0;shape=mxgraph.aws4.group;grIcon=mxgraph.aws4.group_region;strokeColor=#00A4A6;fillColor=none;verticalAlign=top;align=left;spacingLeft=30;fontColor=#147EBA;dashed=1;" vertex="1" parent="xjHvmWYcJlxAKBO4dc0I-1">
          <mxGeometry x="209" y="83" width="519" height="416" as="geometry" />
        </mxCell>
        <mxCell id="xjHvmWYcJlxAKBO4dc0I-9" value="Private subnet" style="points=[[0,0],[0.25,0],[0.5,0],[0.75,0],[1,0],[1,0.25],[1,0.5],[1,0.75],[1,1],[0.75,1],[0.5,1],[0.25,1],[0,1],[0,0.75],[0,0.5],[0,0.25]];outlineConnect=0;gradientColor=none;html=1;whiteSpace=wrap;fontSize=12;fontStyle=0;container=1;pointerEvents=0;collapsible=0;recursiveResize=0;shape=mxgraph.aws4.group;grIcon=mxgraph.aws4.group_security_group;grStroke=0;strokeColor=#00A4A6;fillColor=#E6F6F7;verticalAlign=top;align=left;spacingLeft=30;fontColor=#147EBA;dashed=0;" vertex="1" parent="xjHvmWYcJlxAKBO4dc0I-2">
          <mxGeometry x="264" y="61" width="151" height="253" as="geometry" />
        </mxCell>
        <mxCell id="xjHvmWYcJlxAKBO4dc0I-10" value="" style="sketch=0;points=[[0,0,0],[0.25,0,0],[0.5,0,0],[0.75,0,0],[1,0,0],[0,1,0],[0.25,1,0],[0.5,1,0],[0.75,1,0],[1,1,0],[0,0.25,0],[0,0.5,0],[0,0.75,0],[1,0.25,0],[1,0.5,0],[1,0.75,0]];outlineConnect=0;fontColor=#232F3E;fillColor=#C925D1;strokeColor=#ffffff;dashed=0;verticalLabelPosition=bottom;verticalAlign=top;align=center;html=1;fontSize=12;fontStyle=0;aspect=fixed;shape=mxgraph.aws4.resourceIcon;resIcon=mxgraph.aws4.rds;" vertex="1" parent="xjHvmWYcJlxAKBO4dc0I-9">
          <mxGeometry x="51.5" y="82" width="48" height="48" as="geometry" />
        </mxCell>
        <mxCell id="xjHvmWYcJlxAKBO4dc0I-6" value="Public subnet" style="points=[[0,0],[0.25,0],[0.5,0],[0.75,0],[1,0],[1,0.25],[1,0.5],[1,0.75],[1,1],[0.75,1],[0.5,1],[0.25,1],[0,1],[0,0.75],[0,0.5],[0,0.25]];outlineConnect=0;gradientColor=none;html=1;whiteSpace=wrap;fontSize=12;fontStyle=0;container=1;pointerEvents=0;collapsible=0;recursiveResize=0;shape=mxgraph.aws4.group;grIcon=mxgraph.aws4.group_security_group;grStroke=0;strokeColor=#7AA116;fillColor=#F2F6E8;verticalAlign=top;align=left;spacingLeft=30;fontColor=#248814;dashed=0;" vertex="1" parent="xjHvmWYcJlxAKBO4dc0I-2">
          <mxGeometry x="76" y="61" width="159" height="252" as="geometry" />
        </mxCell>
        <mxCell id="xjHvmWYcJlxAKBO4dc0I-11" value="" style="sketch=0;points=[[0,0,0],[0.25,0,0],[0.5,0,0],[0.75,0,0],[1,0,0],[0,1,0],[0.25,1,0],[0.5,1,0],[0.75,1,0],[1,1,0],[0,0.25,0],[0,0.5,0],[0,0.75,0],[1,0.25,0],[1,0.5,0],[1,0.75,0]];outlineConnect=0;fontColor=#232F3E;fillColor=#ED7100;strokeColor=#ffffff;dashed=0;verticalLabelPosition=bottom;verticalAlign=top;align=center;html=1;fontSize=12;fontStyle=0;aspect=fixed;shape=mxgraph.aws4.resourceIcon;resIcon=mxgraph.aws4.ec2;" vertex="1" parent="xjHvmWYcJlxAKBO4dc0I-6">
          <mxGeometry x="55" y="82" width="49" height="49" as="geometry" />
        </mxCell>
        <mxCell id="xjHvmWYcJlxAKBO4dc0I-19" value="" style="edgeStyle=none;curved=1;rounded=0;orthogonalLoop=1;jettySize=auto;html=1;fontSize=12;startSize=8;endSize=8;" edge="1" parent="xjHvmWYcJlxAKBO4dc0I-2" source="xjHvmWYcJlxAKBO4dc0I-11" target="xjHvmWYcJlxAKBO4dc0I-10">
          <mxGeometry relative="1" as="geometry" />
        </mxCell>
        <mxCell id="xjHvmWYcJlxAKBO4dc0I-23" value="" style="sketch=0;points=[[0,0,0],[0.25,0,0],[0.5,0,0],[0.75,0,0],[1,0,0],[0,1,0],[0.25,1,0],[0.5,1,0],[0.75,1,0],[1,1,0],[0,0.25,0],[0,0.5,0],[0,0.75,0],[1,0.25,0],[1,0.5,0],[1,0.75,0]];outlineConnect=0;fontColor=#232F3E;fillColor=#7AA116;strokeColor=#ffffff;dashed=0;verticalLabelPosition=bottom;verticalAlign=top;align=center;html=1;fontSize=12;fontStyle=0;aspect=fixed;shape=mxgraph.aws4.resourceIcon;resIcon=mxgraph.aws4.s3;" vertex="1" parent="xjHvmWYcJlxAKBO4dc0I-2">
          <mxGeometry x="130.5" y="333" width="50" height="50" as="geometry" />
        </mxCell>
        <mxCell id="xjHvmWYcJlxAKBO4dc0I-25" style="edgeStyle=none;curved=1;rounded=0;orthogonalLoop=1;jettySize=auto;html=1;exitX=0.75;exitY=1;exitDx=0;exitDy=0;exitPerimeter=0;fontSize=12;startSize=8;endSize=8;" edge="1" parent="xjHvmWYcJlxAKBO4dc0I-2" source="xjHvmWYcJlxAKBO4dc0I-23" target="xjHvmWYcJlxAKBO4dc0I-23">
          <mxGeometry relative="1" as="geometry" />
        </mxCell>
        <mxCell id="xjHvmWYcJlxAKBO4dc0I-26" value="" style="edgeStyle=none;curved=1;rounded=0;orthogonalLoop=1;jettySize=auto;html=1;fontSize=12;startSize=8;endSize=8;" edge="1" parent="xjHvmWYcJlxAKBO4dc0I-2" source="xjHvmWYcJlxAKBO4dc0I-11" target="xjHvmWYcJlxAKBO4dc0I-23">
          <mxGeometry relative="1" as="geometry" />
        </mxCell>
        <mxCell id="xjHvmWYcJlxAKBO4dc0I-12" value="" style="sketch=0;points=[[0,0,0],[0.25,0,0],[0.5,0,0],[0.75,0,0],[1,0,0],[0,1,0],[0.25,1,0],[0.5,1,0],[0.75,1,0],[1,1,0],[0,0.25,0],[0,0.5,0],[0,0.75,0],[1,0.25,0],[1,0.5,0],[1,0.75,0]];outlineConnect=0;fontColor=#232F3E;fillColor=#8C4FFF;strokeColor=#ffffff;dashed=0;verticalLabelPosition=bottom;verticalAlign=top;align=center;html=1;fontSize=12;fontStyle=0;aspect=fixed;shape=mxgraph.aws4.resourceIcon;resIcon=mxgraph.aws4.route_53;" vertex="1" parent="xjHvmWYcJlxAKBO4dc0I-1">
          <mxGeometry x="116" y="226.2" width="51" height="51" as="geometry" />
        </mxCell>
        <mxCell id="xjHvmWYcJlxAKBO4dc0I-18" style="edgeStyle=none;curved=1;rounded=0;orthogonalLoop=1;jettySize=auto;html=1;entryX=0;entryY=0.5;entryDx=0;entryDy=0;entryPerimeter=0;fontSize=12;startSize=8;endSize=8;" edge="1" parent="xjHvmWYcJlxAKBO4dc0I-1" source="xjHvmWYcJlxAKBO4dc0I-12" target="xjHvmWYcJlxAKBO4dc0I-11">
          <mxGeometry relative="1" as="geometry" />
        </mxCell>
        <mxCell id="xjHvmWYcJlxAKBO4dc0I-22" value="" style="edgeStyle=none;curved=1;rounded=0;orthogonalLoop=1;jettySize=auto;html=1;fontSize=12;startSize=8;endSize=8;" edge="1" parent="1" source="xjHvmWYcJlxAKBO4dc0I-15" target="xjHvmWYcJlxAKBO4dc0I-17">
          <mxGeometry relative="1" as="geometry" />
        </mxCell>
        <mxCell id="xjHvmWYcJlxAKBO4dc0I-15" value="" style="sketch=0;outlineConnect=0;fontColor=#232F3E;gradientColor=none;fillColor=#232F3D;strokeColor=none;dashed=0;verticalLabelPosition=bottom;verticalAlign=top;align=center;html=1;fontSize=12;fontStyle=0;aspect=fixed;pointerEvents=1;shape=mxgraph.aws4.users;" vertex="1" parent="1">
          <mxGeometry x="-236" y="73.7" width="52" height="52" as="geometry" />
        </mxCell>
        <mxCell id="xjHvmWYcJlxAKBO4dc0I-21" value="" style="edgeStyle=none;curved=1;rounded=0;orthogonalLoop=1;jettySize=auto;html=1;fontSize=12;startSize=8;endSize=8;" edge="1" parent="1" source="xjHvmWYcJlxAKBO4dc0I-17" target="xjHvmWYcJlxAKBO4dc0I-12">
          <mxGeometry relative="1" as="geometry">
            <mxPoint x="58" y="99.70000000000005" as="targetPoint" />
          </mxGeometry>
        </mxCell>
        <mxCell id="xjHvmWYcJlxAKBO4dc0I-17" value="" style="verticalLabelPosition=bottom;aspect=fixed;html=1;shape=mxgraph.salesforce.web;" vertex="1" parent="1">
          <mxGeometry x="-83" y="76" width="60" height="47.400000000000006" as="geometry" />
        </mxCell>
      </root>
    </mxGraphModel>
  </diagram>
</mxfile>
